<?xml version="1.0" encoding="UTF-8" standalone="no"?>
<svg
   xmlns:dc="http://purl.org/dc/elements/1.1/"
   xmlns:cc="http://creativecommons.org/ns#"
   xmlns:rdf="http://www.w3.org/1999/02/22-rdf-syntax-ns#"
   xmlns:svg="http://www.w3.org/2000/svg"
   xmlns="http://www.w3.org/2000/svg"
   xmlns:sodipodi="http://sodipodi.sourceforge.net/DTD/sodipodi-0.dtd"
   xmlns:inkscape="http://www.inkscape.org/namespaces/inkscape"
   width="210mm"
   height="297mm"
   viewBox="0 0 210 297"
   version="1.1"
   id="svg8"
   inkscape:version="1.0 (4035a4fb49, 2020-05-01)"
   sodipodi:docname="mk logo.svg">
  <defs
     id="defs2" />
  <sodipodi:namedview
     id="base"
     pagecolor="#ffffff"
     bordercolor="#666666"
     borderopacity="1.0"
     inkscape:pageopacity="0.0"
     inkscape:pageshadow="2"
     inkscape:zoom="0.49497475"
     inkscape:cx="669.85768"
     inkscape:cy="29.249948"
     inkscape:document-units="mm"
     inkscape:current-layer="layer5"
     inkscape:document-rotation="0"
     showgrid="true"
     showguides="true"
     inkscape:lockguides="false"
     inkscape:window-width="1360"
     inkscape:window-height="746"
     inkscape:window-x="-8"
     inkscape:window-y="-8"
     inkscape:window-maximized="1">
    <inkscape:grid
       type="xygrid"
       id="grid10" />
  </sodipodi:namedview>
  <metadata
     id="metadata5">
    <rdf:RDF>
      <cc:Work
         rdf:about="">
        <dc:format>image/svg+xml</dc:format>
        <dc:type
           rdf:resource="http://purl.org/dc/dcmitype/StillImage" />
        <dc:title />
      </cc:Work>
    </rdf:RDF>
  </metadata>
  <g
     inkscape:groupmode="layer"
     id="layer5"
     inkscape:label="Final">
    <path
       style="fill:#f9a349;fill-opacity:1;stroke:#0a5d79;stroke-width:1.59138;stroke-linecap:butt;stroke-linejoin:miter;stroke-miterlimit:4;stroke-dasharray:none;stroke-opacity:1"
       d="M 0,21.052632 V 12.63158 c 0,0 0,-4.2105266 4.2105266,-4.2105266 H 8.4210531 V 4.2105268 c 0,0 0,-4.21052654373527 4.2105269,-4.21052654373527 h 4.210526 4.210526 V 8.4210534 c 4.210528,2e-7 6.315792,-4.2105266 8.421054,-8.42105314373527 h 4.210528 L 31.57895,4.2105268 c -0.842106,1.6842108 -1.263158,2.526316 -3.368422,4.6315794 2.105264,0.4210526 5.405624,3.7782038 5.473689,7.9999998 v 4.210528 h -4.210528 v -4.210528 c 0,-2.105262 -2.105262,-4.210526 -4.210526,-4.210526 h -4.210531 v 8.421052 H 16.842106 V 4.2105268 h -2.105263 c 0,0 -2.105263,0 -2.105263,2.1052634 V 8.4210534 10.526317 18.94737 H 8.4210531 V 12.63158 H 6.3157899 c 0,0 -2.1052633,0 -2.1052633,2.105263 v 2.105263 4.210526 z"
       id="path880"
       sodipodi:nodetypes="ccsccscccccccccccscccccsccccccsccc" />
    <g
       transform="scale(1.5913801)"
       id="g883">
      <rect
         y="0"
         x="63.500004"
         height="26.458334"
         width="26.458334"
         id="rect913"
         style="fill:#f9a349;fill-opacity:1;stroke:none;stroke-width:0.1;stroke-linecap:round;stroke-linejoin:bevel;stroke-miterlimit:4;stroke-dasharray:none;stroke-dashoffset:0;stroke-opacity:1" />
      <path
         style="fill:none;fill-opacity:1;stroke:#0a5d79;stroke-width:1;stroke-linecap:butt;stroke-linejoin:miter;stroke-miterlimit:4;stroke-dasharray:none;stroke-opacity:1"
         d="m 66.145831,19.843751 v -5.291666 c 0,0 0,-2.645834 2.64584,-2.645834 h 2.64583 V 9.2604169 c 0,0 0,-2.645833 2.64583,-2.645833 h 2.64584 2.64583 v 5.2916671 c 2.64583,0 3.96875,-2.6458341 5.29167,-5.2916671 h 2.64583 l -1.32292,2.645833 c -0.52916,1.0583341 -0.79375,1.5875011 -2.11666,2.9104181 1.32291,0.264583 3.39681,2.374168 3.43958,5.027083 v 2.645834 h -2.64583 v -2.645834 c 0,-1.322916 -1.32292,-2.645833 -2.64583,-2.645833 h -2.64584 v 5.291666 h -2.64583 V 9.2604169 h -1.32292 c 0,0 -1.32292,0 -1.32292,1.3229181 v 1.322916 1.322917 5.291667 h -2.64583 v -3.96875 h -1.32292 c 0,0 -1.32291,0 -1.32291,1.322916 v 1.322917 2.645833 z"
         id="path880-6"
         sodipodi:nodetypes="ccsccscccccccccccscccccsccccccsccc" />
    </g>
    <g
       transform="scale(1.5913801)"
       id="g899">
      <rect
         style="fill:#0a5d79;fill-opacity:1;stroke:#f9a349;stroke-width:0.1;stroke-linecap:round;stroke-linejoin:bevel;stroke-miterlimit:4;stroke-dasharray:none;stroke-dashoffset:0;stroke-opacity:1"
         id="rect913-3"
         width="26.458334"
         height="26.458334"
         x="100.54167"
         y="0" />
      <path
         sodipodi:nodetypes="ccsccscccccccccccscccccsccccccsccc"
         id="path880-6-4"
         d="m 103.1875,19.843751 v -5.291666 c 0,0 0,-2.645834 2.64584,-2.645834 h 2.64583 V 9.2604169 c 0,0 0,-2.645833 2.64583,-2.645833 h 2.64584 2.64583 v 5.2916671 c 2.64583,0 3.96875,-2.6458341 5.29167,-5.2916671 h 2.64583 l -1.32292,2.645833 c -0.52916,1.0583341 -0.79375,1.5875011 -2.11666,2.9104181 1.32291,0.264583 3.39681,2.374168 3.43958,5.027083 v 2.645834 h -2.64583 v -2.645834 c 0,-1.322916 -1.32292,-2.645833 -2.64584,-2.645833 h -2.64583 v 5.291666 h -2.64583 V 9.2604169 h -1.32292 c 0,0 -1.32292,0 -1.32292,1.3229181 v 1.322916 1.322917 5.291667 h -2.64583 v -3.96875 h -1.32292 c 0,0 -1.32291,0 -1.32291,1.322916 v 1.322917 2.645833 z"
         style="fill:none;fill-opacity:1;stroke:#f9a349;stroke-width:1;stroke-linecap:butt;stroke-linejoin:miter;stroke-miterlimit:4;stroke-dasharray:none;stroke-opacity:1" />
    </g>
    <path
       sodipodi:nodetypes="ccsccscccccccccccscccccsccccccsccc"
       id="path880-6-4-1"
       d="m 50.526315,21.052632 v -8.421051 c 0,0 0,-4.2105274 4.210537,-4.2105274 h 4.210521 V 4.2105259 c 0,0 0,-4.21052633333334 4.210522,-4.21052633333334 h 4.210537 4.210521 V 8.4210536 c 4.210521,0 6.31579,-4.2105277 8.421059,-8.42105403333334 h 4.210521 L 82.105264,4.2105259 c -0.842094,1.6842117 -1.263158,2.5263175 -3.36841,4.6315814 2.105252,0.4210521 5.405616,3.7782037 5.473679,7.9999987 v 4.210528 h -4.210521 v -4.210528 c 0,-2.105261 -2.105269,-4.210525 -4.210522,-4.210525 h -4.210537 v 8.421051 H 67.368432 V 4.2105259 h -2.105269 c 0,0 -2.105268,0 -2.105268,2.1052654 v 2.1052623 2.1052634 8.421053 h -4.210522 v -6.315789 h -2.105268 c 0,0 -2.105253,0 -2.105253,2.105262 v 2.105263 4.210526 z"
       style="fill:#0a5d79;fill-opacity:1;stroke:#f9a349;stroke-width:1.59138;stroke-linecap:butt;stroke-linejoin:miter;stroke-miterlimit:4;stroke-dasharray:none;stroke-opacity:1" />
    <g
       transform="scale(1.5913801)"
       id="g895">
      <rect
         style="fill:#f9a349;fill-opacity:1;stroke:none;stroke-width:0.1;stroke-linecap:round;stroke-linejoin:bevel;stroke-miterlimit:4;stroke-dasharray:none;stroke-dashoffset:0;stroke-opacity:1"
         id="rect913-0"
         width="26.458334"
         height="26.458334"
         x="137.58333"
         y="0" />
      <path
         sodipodi:nodetypes="ccsccscccccccccccscccccsccccccsccc"
         id="path880-6-49"
         d="m 140.22915,19.843751 v -5.291666 c 0,0 0,-2.645834 2.64584,-2.645834 h 2.64583 V 9.2604171 c 0,0 0,-2.6458331 2.64583,-2.6458331 h 2.64584 2.64583 v 5.291667 c 2.64583,0 3.96875,-2.6458339 5.29167,-5.291667 h 2.64583 l -1.32292,2.6458331 c -0.52916,1.0583339 -0.79375,1.5875009 -2.11666,2.9104179 1.32291,0.264583 3.39681,2.374168 3.43958,5.027083 v 2.645834 h -2.64583 v -2.645834 c 0,-1.322916 -1.32292,-2.645833 -2.64583,-2.645833 h -2.64584 v 5.291666 h -2.64583 V 9.2604171 h -1.32292 c 0,0 -1.32292,0 -1.32292,1.3229179 v 1.322916 1.322917 5.291667 h -2.64583 v -3.96875 h -1.32292 c 0,0 -1.32291,0 -1.32291,1.322916 v 1.322917 2.645833 z"
         style="fill:none;fill-opacity:1;stroke:#237479;stroke-width:0.499999;stroke-linecap:butt;stroke-linejoin:miter;stroke-miterlimit:4;stroke-dasharray:none;stroke-opacity:1" />
      <rect
         y="0"
         x="137.58333"
         height="26.458334"
         width="26.458334"
         id="rect990"
         style="fill:#f9a349;fill-opacity:1;stroke:#000000;stroke-width:1;stroke-linecap:round;stroke-linejoin:bevel;stroke-miterlimit:4;stroke-dasharray:none;stroke-dashoffset:0;stroke-opacity:1" />
      <path
         style="fill:#0a5d79;fill-opacity:1;stroke:#000000;stroke-width:1;stroke-linecap:butt;stroke-linejoin:miter;stroke-miterlimit:4;stroke-dasharray:none;stroke-opacity:1"
         d="m 140.22915,19.843751 v -5.291666 c 0,0 0,-2.645834 2.64584,-2.645834 h 2.64583 V 9.2604171 c 0,0 0,-2.6458331 2.64583,-2.6458331 h 2.64584 2.64583 v 5.291667 c 2.64583,0 3.96875,-2.6458339 5.29167,-5.291667 h 2.64583 l -1.32292,2.6458331 c -0.52916,1.0583339 -0.79375,1.5875009 -2.11666,2.9104179 1.32291,0.264583 3.39681,2.374168 3.43958,5.027083 v 2.645834 h -2.64583 v -2.645834 c 0,-1.322916 -1.32292,-2.645833 -2.64583,-2.645833 h -2.64584 v 5.291666 h -2.64583 V 9.2604171 h -1.32292 c 0,0 -1.32292,0 -1.32292,1.3229179 v 1.322916 1.322917 5.291667 h -2.64583 v -3.96875 h -1.32292 c 0,0 -1.32291,0 -1.32291,1.322916 v 1.322917 2.645833 z"
         id="path992"
         sodipodi:nodetypes="ccsccscccccccccccscccccsccccccsccc" />
    </g>
    <g
       transform="scale(1.5913801)"
       id="g921">
      <rect
         y="0"
         x="174.62498"
         height="26.458334"
         width="26.458334"
         id="rect913-3-2"
         style="fill:#237479;fill-opacity:1;stroke:#f9a349;stroke-width:0.1;stroke-linecap:round;stroke-linejoin:bevel;stroke-miterlimit:4;stroke-dasharray:none;stroke-dashoffset:0;stroke-opacity:1" />
      <path
         style="fill:none;fill-opacity:1;stroke:#f9a349;stroke-width:0.499999;stroke-linecap:butt;stroke-linejoin:miter;stroke-miterlimit:4;stroke-dasharray:none;stroke-opacity:1"
         d="m 177.27082,19.843751 v -5.291666 c 0,0 0,-2.645834 2.64584,-2.645834 h 2.64583 V 9.2604171 c 0,0 0,-2.6458331 2.64583,-2.6458331 h 2.64584 2.64583 v 5.291667 c 2.64583,0 3.96875,-2.6458339 5.29167,-5.291667 h 2.64584 l -1.32293,2.6458331 c -0.52916,1.0583339 -0.79375,1.5875009 -2.11666,2.9104179 1.32291,0.264583 3.39681,2.374168 3.43959,5.027083 v 2.645834 h -2.64584 v -2.645834 c 0,-1.322916 -1.32292,-2.645833 -2.64584,-2.645833 h -2.64583 v 5.291666 h -2.64583 V 9.2604171 h -1.32292 c 0,0 -1.32292,0 -1.32292,1.3229179 v 1.322916 1.322917 5.291667 h -2.64583 v -3.96875 h -1.32292 c 0,0 -1.32291,0 -1.32291,1.322916 v 1.322917 2.645833 z"
         id="path880-6-4-5"
         sodipodi:nodetypes="ccsccscccccccccccscccccsccccccsccc" />
      <rect
         style="fill:#0a5d79;fill-opacity:1;stroke:#000000;stroke-width:1;stroke-linecap:round;stroke-linejoin:bevel;stroke-miterlimit:4;stroke-dasharray:none;stroke-dashoffset:0;stroke-opacity:1"
         id="rect994"
         width="26.458334"
         height="26.458334"
         x="174.62498"
         y="0" />
      <path
         sodipodi:nodetypes="ccsccscccccccccccscccccsccccccsccc"
         id="path996"
         d="m 177.27082,19.843751 v -5.291666 c 0,0 0,-2.645834 2.64584,-2.645834 h 2.64583 V 9.2604171 c 0,0 0,-2.6458331 2.64583,-2.6458331 h 2.64584 2.64583 v 5.291667 c 2.64583,0 3.96875,-2.6458339 5.29167,-5.291667 h 2.64584 l -1.32293,2.6458331 c -0.52916,1.0583339 -0.79375,1.5875009 -2.11666,2.9104179 1.32291,0.264583 3.39681,2.374168 3.43959,5.027083 v 2.645834 h -2.64584 v -2.645834 c 0,-1.322916 -1.32292,-2.645833 -2.64584,-2.645833 h -2.64583 v 5.291666 h -2.64583 V 9.2604171 h -1.32292 c 0,0 -1.32292,0 -1.32292,1.3229179 v 1.322916 1.322917 5.291667 h -2.64583 v -3.96875 h -1.32292 c 0,0 -1.32291,0 -1.32291,1.322916 v 1.322917 2.645833 z"
         style="fill:#f9a349;fill-opacity:1;stroke:#000000;stroke-width:1;stroke-linecap:butt;stroke-linejoin:miter;stroke-miterlimit:4;stroke-dasharray:none;stroke-opacity:1" />
    </g>
    <path
       sodipodi:nodetypes="ccsccscccccccccccscccccsccccccsccc"
       id="path880-65"
       d="m 3.947367,57.631579 v -8.421052 c 0,0 0,-4.210527 4.2105266,-4.210527 H 12.36842 v -4.210526 c 0,0 0,-4.210527 4.210528,-4.210527 H 20.789474 25 V 45 c 4.210528,10e-7 6.315791,-4.210526 8.421054,-8.421053 h 4.210529 l -2.105266,4.210527 c -0.842105,1.684211 -1.263158,2.526316 -3.368421,4.631579 2.105263,0.421053 5.405623,3.778204 5.47369,8 v 4.210528 h -4.210529 v -4.210528 c 0,-2.105262 -2.105263,-4.210526 -4.210526,-4.210526 H 25 v 8.421052 H 20.789474 V 40.789474 h -2.105263 c 0,0 -2.105263,0 -2.105263,2.105263 V 45 47.105264 55.526317 H 12.36842 v -6.31579 h -2.105263 c 0,0 -2.1052634,0 -2.1052634,2.105263 v 2.105263 4.210526 z"
       style="fill:#f9a349;fill-opacity:0;stroke:#000000;stroke-width:1.59138;stroke-linecap:butt;stroke-linejoin:miter;stroke-miterlimit:4;stroke-dasharray:none;stroke-opacity:1" />
  </g>
</svg>
